<svg width="323" height="279" viewBox="0 0 323 279" fill="none" xmlns="http://www.w3.org/2000/svg">
<g clip-path="url(#clip0_98_81)">
<path d="M257.531 50.8205C255.855 70.5094 251.081 91.2703 243.594 111.302C234.335 136.073 221.685 157.892 207.011 174.399L206.197 173.642C220.8 157.214 233.392 135.492 242.612 110.823C250.945 88.5297 255.902 65.3305 256.952 43.7433L257.993 43.9291C257.882 46.2089 257.728 48.5061 257.531 50.8205Z" fill="#F2F2F2"/>
<path d="M264.205 165.17C243.595 200.136 218.59 225.119 193.796 235.517L193.294 234.536C217.916 224.21 242.775 199.355 263.292 164.549L264.205 165.17Z" fill="#F2F2F2"/>
<path d="M257.031 75.3339C255.355 95.0228 250.581 115.784 243.094 135.815C233.835 160.587 221.185 182.406 206.511 198.912L205.696 198.155C220.299 181.728 232.892 160.005 242.112 135.336C250.445 113.043 255.401 89.8439 256.452 68.2567L257.492 68.4425C257.382 70.7224 257.228 73.0195 257.031 75.3339Z" fill="#F2F2F2"/>
<path d="M25.6508 125.882H12.1278C11.8388 125.882 11.5535 125.813 11.2932 125.679C11.0329 125.546 10.8044 125.351 10.6248 125.11C10.4474 124.874 10.3222 124.599 10.2586 124.305C10.1951 124.011 10.1949 123.705 10.2579 123.411C11.5459 117.351 11.465 111.052 10.0219 105.031C9.93059 104.635 9.95266 104.219 10.0852 103.836C10.2178 103.453 10.4548 103.121 10.7658 102.883C17.7193 97.55 23.1955 97.7047 27.0423 103.344C27.2157 103.601 27.3309 103.897 27.3788 104.21C28.4066 110.799 28.4635 117.518 27.5474 124.126C27.4837 124.614 27.2565 125.06 26.9078 125.383C26.5591 125.706 26.1125 125.883 25.6508 125.882Z" fill="#E6E6E6"/>
<path d="M21.4583 111.441H16.8064C16.5491 111.441 16.3024 111.332 16.1205 111.138C15.9386 110.944 15.8364 110.681 15.8364 110.406C15.8364 110.132 15.9386 109.869 16.1205 109.675C16.3024 109.481 16.5491 109.372 16.8064 109.372H21.4583C21.7152 109.373 21.9614 109.482 22.1428 109.676C22.3243 109.87 22.4262 110.132 22.4262 110.406C22.4262 110.68 22.3243 110.943 22.1428 111.137C21.9614 111.331 21.7152 111.44 21.4583 111.441Z" fill="white"/>
<path d="M21.4583 115.068H16.8064C16.5491 115.068 16.3024 114.959 16.1205 114.765C15.9386 114.571 15.8364 114.308 15.8364 114.034C15.8364 113.759 15.9386 113.496 16.1205 113.302C16.3024 113.108 16.5491 112.999 16.8064 112.999H21.4583C21.7152 113 21.9614 113.109 22.1428 113.303C22.3243 113.497 22.4262 113.76 22.4262 114.034C22.4262 114.308 22.3243 114.57 22.1428 114.764C21.9614 114.958 21.7152 115.067 21.4583 115.068Z" fill="white"/>
<path d="M21.4583 118.695H16.8064C16.5491 118.695 16.3024 118.586 16.1205 118.392C15.9386 118.198 15.8364 117.935 15.8364 117.661C15.8364 117.387 15.9386 117.124 16.1205 116.93C16.3024 116.736 16.5491 116.627 16.8064 116.627H21.4583C21.7152 116.627 21.9614 116.737 22.1428 116.93C22.3243 117.124 22.4262 117.387 22.4262 117.661C22.4262 117.935 22.3243 118.198 22.1428 118.392C21.9614 118.585 21.7152 118.695 21.4583 118.695Z" fill="white"/>
<path d="M271.418 190.267H257.895C257.606 190.267 257.321 190.198 257.061 190.065C256.801 189.931 256.572 189.736 256.392 189.495C256.215 189.26 256.09 188.985 256.026 188.69C255.963 188.396 255.962 188.091 256.025 187.796C257.313 181.736 257.233 175.437 255.789 169.417C255.698 169.02 255.72 168.604 255.853 168.221C255.985 167.838 256.222 167.506 256.533 167.268C263.487 161.935 268.963 162.09 272.81 167.729C272.983 167.986 273.098 168.282 273.146 168.595C274.174 175.184 274.231 181.904 273.315 188.511C273.251 188.999 273.024 189.446 272.675 189.768C272.327 190.091 271.88 190.268 271.418 190.267Z" fill="#E6E6E6"/>
<path d="M267.226 175.826H262.574C262.317 175.825 262.071 175.716 261.889 175.522C261.708 175.328 261.606 175.066 261.606 174.792C261.606 174.518 261.708 174.255 261.889 174.061C262.071 173.867 262.317 173.758 262.574 173.757H267.226C267.483 173.757 267.73 173.866 267.912 174.06C268.094 174.254 268.196 174.517 268.196 174.792C268.196 175.066 268.094 175.329 267.912 175.523C267.73 175.717 267.483 175.826 267.226 175.826Z" fill="white"/>
<path d="M267.226 179.453H262.574C262.317 179.453 262.071 179.343 261.889 179.15C261.708 178.956 261.606 178.693 261.606 178.419C261.606 178.145 261.708 177.882 261.889 177.688C262.071 177.494 262.317 177.385 262.574 177.385H267.226C267.483 177.385 267.73 177.494 267.912 177.688C268.094 177.882 268.196 178.145 268.196 178.419C268.196 178.693 268.094 178.956 267.912 179.15C267.73 179.344 267.483 179.453 267.226 179.453Z" fill="white"/>
<path d="M267.226 183.081H262.574C262.317 183.08 262.071 182.971 261.889 182.777C261.708 182.583 261.606 182.32 261.606 182.046C261.606 181.772 261.708 181.51 261.889 181.316C262.071 181.122 262.317 181.013 262.574 181.012H267.226C267.483 181.012 267.73 181.121 267.912 181.315C268.094 181.509 268.196 181.772 268.196 182.046C268.196 182.321 268.094 182.584 267.912 182.778C267.73 182.972 267.483 183.081 267.226 183.081Z" fill="white"/>
<path d="M322.589 278.46C322.589 278.531 322.577 278.602 322.551 278.667C322.526 278.733 322.489 278.792 322.441 278.842C322.394 278.892 322.339 278.932 322.277 278.959C322.216 278.986 322.15 279 322.083 279H0.505993C0.371796 279 0.243099 278.943 0.148208 278.842C0.0533155 278.741 0 278.603 0 278.46C0 278.317 0.0533155 278.18 0.148208 278.079C0.243099 277.978 0.371796 277.921 0.505993 277.921H322.083C322.15 277.921 322.216 277.934 322.277 277.961C322.339 277.988 322.394 278.028 322.441 278.078C322.489 278.128 322.526 278.188 322.551 278.254C322.577 278.319 322.589 278.389 322.589 278.46Z" fill="#CCCCCC"/>
<path d="M84.8296 245.424L83.9862 232.915C78.4613 229.97 72.3458 228.508 66.1707 228.655C74.8583 235.816 74.1624 250.128 80.179 259.922C82.0775 262.962 84.5931 265.507 87.5394 267.369C90.4856 269.231 93.787 270.362 97.199 270.678L104.429 275.114C105.256 269.285 104.888 263.334 103.351 257.671C101.814 252.008 99.1431 246.767 95.5236 242.311C93.4698 239.832 91.1315 237.639 88.5639 235.784C86.9835 240.622 84.8296 245.424 84.8296 245.424Z" fill="#F2F2F2"/>
<path d="M237.76 247.238L238.603 234.729C244.128 231.784 250.243 230.321 256.419 230.469C247.731 237.629 248.427 251.941 242.41 261.736C240.512 264.776 237.996 267.321 235.05 269.183C232.104 271.045 228.802 272.176 225.39 272.492L218.16 276.928C217.333 271.098 217.701 265.147 219.238 259.484C220.776 253.821 223.446 248.581 227.066 244.125C229.119 241.646 231.458 239.453 234.025 237.597C235.606 242.436 237.76 247.238 237.76 247.238Z" fill="#F2F2F2"/>
<path d="M157.468 106.074C161.93 106.074 165.547 102.217 165.547 97.4587C165.547 92.7008 161.93 88.8438 157.468 88.8438C153.006 88.8438 149.389 92.7008 149.389 97.4587C149.389 102.217 153.006 106.074 157.468 106.074Z" fill="#7B61FF"/>
<path d="M161.615 93.8683C161.493 93.7446 161.332 93.6757 161.164 93.6757C160.996 93.6757 160.834 93.7446 160.713 93.8683C158.999 95.3262 157.459 97.0032 156.128 98.8617C155.802 98.1877 155.475 97.5137 155.149 96.8398C154.772 96.0618 153.67 96.7491 154.047 97.5263C154.525 98.5121 155.003 99.4979 155.48 100.484C155.538 100.584 155.619 100.667 155.715 100.725C155.812 100.783 155.921 100.813 156.031 100.813C156.142 100.813 156.25 100.783 156.347 100.725C156.443 100.667 156.524 100.584 156.582 100.484C158 98.3542 159.694 96.4507 161.615 94.8301C161.734 94.702 161.8 94.5292 161.8 94.3492C161.8 94.1691 161.734 93.9963 161.615 93.8683Z" fill="white"/>
<path d="M121.319 121.888L109.136 101.486L123.244 93.4292L126.946 108.995L153.035 124.028C154.065 123.633 155.18 123.565 156.245 123.835C157.311 124.104 158.279 124.698 159.033 125.544C159.788 126.39 160.295 127.451 160.493 128.599C160.691 129.748 160.571 130.932 160.149 132.009C159.726 133.086 159.019 134.008 158.114 134.664C157.208 135.32 156.143 135.68 155.048 135.702C153.954 135.723 152.877 135.405 151.95 134.785C151.022 134.165 150.284 133.271 149.824 132.211L121.319 121.888Z" fill="#A0616A"/>
<path d="M100.235 77.0157C96.4076 83.0088 110.011 104.793 110.011 104.793C110.674 103.27 117.008 120.375 118.07 119.365C121.085 116.493 125.806 108.494 128.43 108.137C129.93 107.933 124.949 96.5848 124.949 96.5848C124.949 96.5848 122.673 89.8835 119.584 81.3233C118.753 78.8859 117.357 76.7124 115.526 75.0051C113.695 73.2978 111.489 72.1123 109.113 71.5587C109.113 71.5587 104.063 71.0226 100.235 77.0157Z" fill="#3F3D56"/>
<path d="M100.422 272.273L106.208 272.273L108.961 248.475L100.421 248.476L100.422 272.273Z" fill="#A0616A"/>
<path d="M98.9465 270.259L100.575 270.259L106.933 267.502L110.341 270.258H110.341C112.267 270.259 114.114 271.074 115.476 272.526C116.838 273.979 117.603 275.948 117.603 278.002V278.253L98.9469 278.254L98.9465 270.259Z" fill="#2F2E41"/>
<path d="M127.302 272.273L133.088 272.273L135.841 248.475L127.301 248.476L127.302 272.273Z" fill="#A0616A"/>
<path d="M125.826 270.259L127.455 270.259L133.813 267.502L137.221 270.258H137.221C139.147 270.259 140.994 271.074 142.356 272.526C143.717 273.979 144.483 275.948 144.483 278.002V278.253L125.827 278.254L125.826 270.259Z" fill="#2F2E41"/>
<path d="M129.806 142.17L92.1728 143.173C85.0254 147.313 84.9168 156.273 87.2587 166.911C87.2587 166.911 86.4681 173.233 88.0493 174.92C89.6305 176.606 90.4211 176.606 89.6305 179.556C88.8399 182.507 93.0169 187.326 92.5096 187.867C92.0022 188.408 90.8164 191.359 90.8164 191.359L94.7693 215.386C94.7693 215.386 97.5363 257.117 98.3269 257.96C99.1175 258.803 99.9081 257.96 99.1175 260.067C98.3269 262.175 97.5363 261.332 98.3269 262.175C99.0272 262.98 99.687 263.824 100.303 264.704H109.86C109.86 264.704 110.581 260.489 110.581 260.067C110.581 259.646 111.372 257.117 111.372 256.695C111.372 256.273 110.673 255.528 110.673 255.528C110.431 254.671 110.268 253.792 110.186 252.901C110.186 252.058 107.814 219.601 107.814 219.601L112.557 177.449L124.021 218.758C124.021 218.758 124.021 255.009 124.812 255.852C125.602 256.695 125.602 256.273 125.207 257.96C124.812 259.646 123.23 259.224 124.416 260.489C125.602 261.753 125.997 259.646 125.602 261.753L125.207 263.861L137.066 264.042C137.066 264.042 138.647 260.489 137.856 259.224C137.066 257.96 137.113 258.305 138.078 256.235C139.042 254.166 139.437 253.744 139.042 253.323C138.647 252.901 138.647 250.659 138.647 250.659L136.67 210.328C136.67 210.328 136.275 167.754 136.275 166.489C136.245 165.838 136.358 165.189 136.603 164.593V162.876L135.089 156.794L129.806 142.17Z" fill="#2F2E41"/>
<path d="M107.2 58.7243C113.657 58.7243 118.893 53.1418 118.893 46.2555C118.893 39.3691 113.657 33.7866 107.2 33.7866C100.742 33.7866 95.5066 39.3691 95.5066 46.2555C95.5066 53.1418 100.742 58.7243 107.2 58.7243Z" fill="#A0616A"/>
<path d="M113.046 66.9655C115.565 68.5625 117.072 71.4967 117.937 74.4826C119.539 80.0105 120.503 85.7259 120.808 91.5025L121.721 108.797L133.037 145.62C123.23 154.469 86.3671 147.631 86.3671 147.631C86.3671 147.631 85.2355 147.229 86.3671 146.023C87.4987 144.816 88.6003 145.885 87.4687 144.678C86.3372 143.472 87.1172 144.816 87.4944 143.609C87.8716 142.403 87.4944 143.207 87.1172 142.805C86.74 142.402 90.0372 138.783 90.0372 138.783L87.0197 117.645L83.2478 75.0099C87.7741 68.9766 96.8771 65.42 96.8771 65.42L99.2292 60.9053L110.99 61.9085L113.046 66.9655Z" fill="#3F3D56"/>
<path d="M116.839 39.6311C117.748 40.3539 118.421 41.3625 118.764 42.5148C118.896 40.6317 118.904 38.7411 118.789 36.8567C118.651 35.5326 117.777 35.2347 116.765 34.8896C115.85 34.5778 114.817 34.2256 114.538 32.9401C110.863 29.1272 104.464 29.3195 100.085 30.6495C97.6758 31.3814 96.2894 32.3217 96.1653 32.8725L96.1396 32.9859L96.0418 33.0381C94.1844 34.0284 93.8229 37.1555 93.8468 39.6044C93.892 44.2183 95.386 49.4586 96.2276 49.8843C96.2722 49.9068 96.2834 49.898 96.3027 49.8808C97.5699 48.8009 99.116 49.9629 99.7955 50.5946C100.196 47.727 101.487 45.0853 103.46 43.0914C105.434 41.0975 107.978 39.8665 110.685 39.5949C111.569 39.5038 112.446 39.347 113.309 39.1256C113.747 39.0048 114.198 38.9418 114.65 38.938C115.429 38.9254 116.193 39.1673 116.839 39.6311Z" fill="#2F2E41"/>
<path d="M189.427 152.106L211.92 127.749L217.846 108.268L208.31 104.155C203.586 109.237 198.723 124.792 198.723 124.792L183.37 146.764C183.248 146.813 183.126 146.864 183.005 146.925C182.298 147.281 181.689 147.825 181.238 148.505C180.786 149.185 180.506 149.978 180.425 150.807C180.345 151.636 180.466 152.474 180.778 153.238C181.089 154.002 181.58 154.668 182.204 155.171C182.827 155.674 183.562 155.997 184.336 156.109C185.111 156.22 185.899 156.117 186.626 155.809C187.352 155.501 187.991 154.998 188.482 154.349C188.973 153.7 189.298 152.928 189.427 152.106Z" fill="#FFB8B8"/>
<path d="M205.708 106.384L217.768 110.104L217.813 110.094C222.246 109.177 225.753 101.321 227.914 94.8921C228.625 92.7717 228.554 90.4425 227.716 88.3755C226.879 86.3085 225.336 84.6578 223.401 83.7572C221.969 83.1031 220.394 82.8892 218.854 83.1396C217.314 83.39 215.87 84.0948 214.686 85.1742L208.673 90.6956L205.708 106.384Z" fill="#7B61FF"/>
<path d="M195.39 271.55L188.904 271.549L185.819 244.872L195.391 244.873L195.39 271.55Z" fill="#FFB8B8"/>
<path d="M197.044 269.292L195.219 269.292L188.091 266.201L184.271 269.291H184.271C182.112 269.291 180.042 270.206 178.515 271.834C176.989 273.461 176.131 275.669 176.131 277.971V278.253L197.044 278.254L197.044 269.292Z" fill="#2F2E41"/>
<path d="M224.169 271.55L217.683 271.549L214.598 244.872L224.17 244.873L224.169 271.55Z" fill="#FFB8B8"/>
<path d="M225.823 269.292L223.998 269.292L216.87 266.201L213.05 269.291H213.05C210.891 269.291 208.821 270.206 207.294 271.834C205.767 273.461 204.91 275.669 204.91 277.971V278.253L225.823 278.254L225.823 269.292Z" fill="#2F2E41"/>
<path d="M234.059 156.642C234.059 156.642 234.816 166.333 232.923 175.621C231.03 184.908 231.03 211.064 231.03 211.064L226.864 262.034L214.368 260.822L210.96 175.621L198.843 204.29L199.979 208.328L198.465 209.338C198.465 209.338 199.6 217.212 198.843 217.212C198.085 217.212 196.192 218.423 196.192 218.423L197.707 260.015L184.832 259.611L180.288 201.06L185.21 167.545L185.589 161.084L187.293 161.159L188.161 158.459L189.754 153.815L234.059 156.642Z" fill="#2F2E41"/>
<path d="M234.713 158.678L234.781 158.577C238.385 153.196 232.964 140.265 232.147 138.39L235.59 137.199L234.815 130.17L234.448 127.036L237.08 124.229L237.087 124.159L238.602 110.026L240.804 100.639C241.634 97.0905 241.563 93.3704 240.599 89.8605C239.635 86.3507 237.813 83.1776 235.319 80.6671L230.228 75.5488L224.041 65.7872H214.065L210.644 72.6774C207.327 73.4948 204.385 75.527 202.329 78.42C200.273 81.3129 199.234 84.8833 199.393 88.5092L200.168 106.58L197.133 129.08L197.131 133.152L193.715 137.2L194.461 141.177L191.862 142.365L190.714 148.076C190.239 148.745 187.104 153.202 187.104 154.421C187.104 154.604 187.23 154.781 187.502 154.977C189.639 156.52 201.449 159.665 206.675 157.435C212.243 155.061 234.375 158.622 234.598 158.659L234.713 158.678Z" fill="#7B61FF"/>
<path d="M217.764 62.6361C225.061 62.6361 230.977 56.3279 230.977 48.5464C230.977 40.7648 225.061 34.4567 217.764 34.4567C210.467 34.4567 204.551 40.7648 204.551 48.5464C204.551 56.3279 210.467 62.6361 217.764 62.6361Z" fill="#FFB8B8"/>
<path d="M216.498 62.8642C218.544 62.8419 220.585 62.6333 222.598 62.2406C224.591 61.751 228.988 58.1255 230.186 55.9837C231.077 54.3923 231.611 51.9309 231.902 50.1463C232.296 47.7846 232.22 45.361 231.68 43.0325C231.139 40.704 230.146 38.5225 228.765 36.6293C228.232 35.8362 227.509 35.2113 226.67 34.8207C226.596 34.7921 226.52 34.767 226.443 34.7459C225.228 34.4406 224.126 33.7549 223.28 32.777C223.115 32.579 222.938 32.3939 222.748 32.2232C221.798 31.412 220.681 30.8521 219.49 30.5892C217.564 30.0961 214.81 30.7141 211.303 32.4274C209.541 33.2883 207.586 33.0481 206.079 32.7427C205.994 32.7277 205.908 32.7366 205.827 32.7684C205.747 32.8002 205.676 32.8539 205.621 32.9241C204.999 33.58 204.167 33.9605 203.293 33.989C202.757 34.0288 202.215 34.8352 201.56 35.8854C201.412 36.1237 201.239 36.4019 201.113 36.5717L201.088 36.2529L200.793 36.6174C200.33 37.1904 200.011 37.8789 199.865 38.6189C199.719 39.3588 199.751 40.1262 199.958 40.8494C200.165 41.5727 200.54 42.2283 201.049 42.7553C201.557 43.2823 202.183 43.6635 202.867 43.8633C203.409 44.0014 203.963 44.08 204.521 44.098C204.859 44.121 205.209 44.1449 205.544 44.1975C206.623 44.4023 207.633 44.9018 208.477 45.6472C209.32 46.3926 209.968 47.3585 210.357 48.4507C210.449 48.703 210.594 48.9295 210.781 49.1127C210.968 49.2958 211.192 49.4307 211.435 49.5069C211.679 49.5832 211.936 49.5987 212.186 49.5523C212.436 49.5059 212.673 49.3988 212.878 49.2393C213.219 48.9406 213.623 48.7343 214.055 48.638C214.487 48.5417 214.935 48.5584 215.36 48.6865C215.729 48.8924 216.021 49.2275 216.186 49.6356C216.386 50.0899 216.708 50.4704 217.112 50.7285C218.487 51.4375 218.661 54.7415 218.24 57.5113C217.834 60.1811 216.952 62.1288 216.094 62.2475C215.433 62.3387 215.359 62.391 215.314 62.5172L215.274 62.6302L215.351 62.7327C215.72 62.864 216.111 62.9089 216.498 62.8642Z" fill="#2F2E41"/>
<path d="M205.536 107.89L199.185 99.261C192.716 101.161 181.237 112.071 181.237 112.071L157.663 122.98C156.876 122.839 156.068 122.922 155.321 123.219C154.573 123.517 153.913 124.02 153.405 124.676C152.898 125.333 152.562 126.12 152.43 126.959C152.299 127.799 152.377 128.66 152.658 129.457C152.938 130.253 153.41 130.957 154.026 131.497C154.642 132.038 155.381 132.395 156.168 132.534C156.955 132.673 157.763 132.589 158.51 132.289C159.256 131.989 159.916 131.485 160.422 130.827L191.303 121.64L205.536 107.89Z" fill="#FFB8B8"/>
<path d="M204.014 109.863L214.035 97.9508L214.592 89.51C214.695 87.8525 214.362 86.1971 213.63 84.731C212.897 83.2648 211.795 82.0463 210.447 81.2132C208.613 80.097 206.45 79.765 204.395 80.2844C202.34 80.8038 200.547 82.1359 199.378 84.0113C195.837 89.702 192.028 97.396 193.988 101.734L194.008 101.778L204.014 109.863Z" fill="#7B61FF"/>
<path d="M111.65 154.638L85.6041 140.414C83.7515 139.402 83.1378 136.718 84.2362 134.432L101.218 99.0723C102.317 96.7855 104.718 95.7481 106.57 96.7599L132.616 110.984C134.468 111.996 135.082 114.68 133.984 116.966L117.001 152.326C115.903 154.613 113.502 155.65 111.65 154.638Z" fill="#E6E6E6"/>
<path d="M107.2 148.099L89.5038 138.435C87.7687 137.487 87.1939 134.974 88.2225 132.832L102.331 103.456C103.36 101.315 105.608 100.343 107.343 101.291L128.716 112.963C130.451 113.911 131.026 116.424 129.997 118.566L122.333 134.524C117.751 144.064 114.928 152.32 107.2 148.099Z" fill="white"/>
<path d="M115.949 132.057L100.275 123.497C100.083 123.352 99.9472 123.137 99.8914 122.893C99.8357 122.65 99.864 122.393 99.9713 122.169C100.079 121.946 100.258 121.771 100.476 121.677C100.694 121.583 100.936 121.575 101.159 121.656L116.833 130.216C117.024 130.361 117.161 130.576 117.216 130.82C117.272 131.063 117.244 131.32 117.136 131.544C117.029 131.767 116.85 131.942 116.632 132.036C116.414 132.13 116.171 132.138 115.949 132.057Z" fill="#7B61FF"/>
<path d="M102.105 129.088L98.5281 127.135C98.3365 126.989 98.2004 126.775 98.1446 126.531C98.0889 126.287 98.1172 126.03 98.2245 125.807C98.3318 125.583 98.5108 125.409 98.7289 125.314C98.947 125.22 99.1896 125.213 99.4124 125.293L102.989 127.247C103.181 127.393 103.317 127.607 103.373 127.851C103.429 128.094 103.4 128.351 103.293 128.575C103.186 128.798 103.007 128.973 102.789 129.067C102.57 129.161 102.328 129.169 102.105 129.088Z" fill="#7B61FF"/>
<path d="M106.693 136.185L96.781 130.772C96.5894 130.627 96.4533 130.412 96.3975 130.169C96.3418 129.925 96.3701 129.668 96.4774 129.444C96.5847 129.221 96.7637 129.046 96.9818 128.952C97.1999 128.858 97.4425 128.85 97.6653 128.931L107.577 134.344C107.769 134.49 107.905 134.704 107.961 134.948C108.017 135.192 107.988 135.449 107.881 135.672C107.774 135.896 107.595 136.07 107.377 136.164C107.158 136.259 106.916 136.266 106.693 136.185V136.185Z" fill="#7B61FF"/>
<path d="M122.151 119.143L106.478 110.583C106.286 110.437 106.15 110.223 106.094 109.979C106.038 109.735 106.067 109.478 106.174 109.255C106.281 109.032 106.46 108.857 106.678 108.763C106.896 108.669 107.139 108.661 107.362 108.742L123.035 117.302C123.227 117.447 123.363 117.662 123.419 117.905C123.475 118.149 123.446 118.406 123.339 118.63C123.232 118.853 123.053 119.028 122.835 119.122C122.617 119.216 122.374 119.224 122.151 119.143Z" fill="#7B61FF"/>
<path d="M108.307 116.174L104.731 114.22C104.539 114.075 104.403 113.86 104.347 113.617C104.291 113.373 104.32 113.116 104.427 112.892C104.534 112.669 104.713 112.494 104.931 112.4C105.149 112.306 105.392 112.298 105.615 112.379L109.192 114.333C109.383 114.478 109.519 114.693 109.575 114.936C109.631 115.18 109.603 115.437 109.495 115.66C109.388 115.884 109.209 116.059 108.991 116.153C108.773 116.247 108.53 116.254 108.307 116.174Z" fill="#7B61FF"/>
<path d="M112.895 123.271L102.983 117.858C102.792 117.712 102.656 117.498 102.6 117.254C102.544 117.01 102.573 116.753 102.68 116.53C102.787 116.307 102.966 116.132 103.184 116.038C103.402 115.943 103.645 115.936 103.868 116.017L113.78 121.43C113.971 121.576 114.107 121.79 114.163 122.034C114.219 122.277 114.191 122.535 114.083 122.758C113.976 122.981 113.797 123.156 113.579 123.25C113.361 123.344 113.118 123.352 112.895 123.271L112.895 123.271Z" fill="#7B61FF"/>
<path d="M90.0667 123.854L84.1826 100.496L99.9064 97.3215L99.0608 113.355L119.721 136.039C120.814 135.991 121.897 136.284 122.838 136.882C123.778 137.479 124.535 138.355 125.017 139.404C125.498 140.452 125.683 141.627 125.549 142.785C125.415 143.944 124.968 145.036 124.262 145.928C123.557 146.82 122.623 147.474 121.574 147.81C120.526 148.146 119.408 148.149 118.358 147.82C117.308 147.49 116.371 146.842 115.66 145.954C114.95 145.066 114.497 143.977 114.356 142.819L90.0667 123.854Z" fill="#A0616A"/>
<path d="M82.5737 74.3055C77.2365 78.7986 84.0868 103.931 84.0868 103.931C85.1474 102.69 86.3799 121.034 87.6763 120.409C91.3608 118.634 98.1139 112.512 100.717 113.011C102.206 113.296 100.646 100.877 100.646 100.877C100.646 100.877 100.359 93.7566 99.8202 84.6026C99.7128 82.0116 98.9923 79.4917 97.7259 77.2775C96.4596 75.0633 94.6884 73.2267 92.5774 71.9388C92.5774 71.9388 87.9109 69.8125 82.5737 74.3055Z" fill="#3F3D56"/>
<path d="M171.38 175.701L157.167 168.544C156.863 168.392 156.595 168.169 156.384 167.89C156.173 167.612 156.023 167.286 155.947 166.938C155.87 166.597 155.866 166.241 155.936 165.898C156.006 165.556 156.148 165.234 156.352 164.958C160.469 159.347 163.296 152.786 164.606 145.8C164.705 145.265 164.975 144.783 165.37 144.437C165.765 144.09 166.26 143.901 166.771 143.9C174.02 143.926 179.438 146.749 182.873 152.288C183.054 152.576 183.174 152.903 183.225 153.245C183.275 153.588 183.255 153.938 183.166 154.272C181.177 161.583 178.15 168.526 174.19 174.86C173.897 175.339 173.45 175.688 172.933 175.843C172.416 175.997 171.865 175.947 171.38 175.701Z" fill="#E6E6E6"/>
<path d="M175.561 165.664L164.694 160.191C164.423 160.055 164.215 159.81 164.114 159.51C164.013 159.21 164.028 158.879 164.156 158.591C164.283 158.303 164.513 158.08 164.794 157.973C165.076 157.865 165.386 157.881 165.656 158.017L176.524 163.489C176.658 163.557 176.778 163.652 176.877 163.769C176.977 163.885 177.054 164.022 177.104 164.171C177.154 164.319 177.176 164.477 177.168 164.635C177.161 164.792 177.125 164.947 177.062 165.09C176.999 165.233 176.91 165.361 176.8 165.467C176.69 165.573 176.562 165.655 176.423 165.708C176.283 165.761 176.136 165.785 175.988 165.777C175.84 165.77 175.695 165.731 175.561 165.664H175.561Z" fill="white"/>
<path d="M177.249 161.851L166.382 156.379C166.111 156.243 165.903 155.998 165.802 155.697C165.701 155.397 165.716 155.067 165.844 154.778C165.971 154.49 166.201 154.268 166.483 154.16C166.764 154.053 167.074 154.069 167.345 154.205L178.212 159.677C178.482 159.813 178.691 160.058 178.792 160.358C178.893 160.658 178.878 160.989 178.75 161.277C178.622 161.566 178.393 161.788 178.111 161.896C177.83 162.003 177.52 161.987 177.249 161.851V161.851Z" fill="white"/>
<path d="M162.728 42.1747L161.717 42.2929C157.206 23.3924 148.464 10.2984 136.433 4.42613C121.14 -3.03858 102.229 1.97411 83.1833 18.541C64.0413 35.1925 47.0956 61.4947 35.4681 92.6036L34.4866 92.1246C46.1651 60.8798 63.1978 34.4506 82.447 17.7065C101.793 0.8778 121.09 -4.17165 136.784 3.48851C149.159 9.52907 158.13 22.9066 162.728 42.1747Z" fill="#F2F2F2"/>
<path d="M51.123 66.7902C48.4776 72.733 45.9613 78.8897 43.644 85.0892C30.3094 120.765 23.552 157.2 24.1042 190.456L23.0621 190.337C22.5093 156.958 29.2862 120.397 42.6625 84.6102C44.9864 78.3932 47.5098 72.2191 50.1629 66.2595L51.123 66.7902Z" fill="#F2F2F2"/>
<path d="M50.6228 91.3035C47.9773 97.2463 45.4611 103.403 43.1438 109.603C29.8092 145.278 23.0518 181.713 23.604 214.969L22.5618 214.851C22.0091 181.471 28.7859 144.911 42.1623 109.124C44.4862 102.907 47.0096 96.7324 49.6627 90.7728L50.6228 91.3035Z" fill="#F2F2F2"/>
<path d="M22.6119 100.219C23.764 98.3721 23.0821 95.7288 21.0889 94.3147C19.0957 92.9006 16.5459 93.2512 15.3939 95.0977C14.2418 96.9442 14.9237 99.5875 16.9169 101.002C18.9101 102.416 21.4599 102.065 22.6119 100.219Z" fill="#CCCCCC"/>
<path d="M267.93 166.903C269.082 165.056 268.4 162.413 266.407 160.999C264.414 159.585 261.864 159.935 260.712 161.782C259.56 163.628 260.242 166.271 262.235 167.686C264.228 169.1 266.778 168.749 267.93 166.903Z" fill="#CCCCCC"/>
</g>
<defs>
<clipPath id="clip0_98_81">
<rect width="322.589" height="279" fill="white"/>
</clipPath>
</defs>
</svg>
